<?xml version="1.0" encoding="UTF-8"?>
<svg version="1.1" xmlns="http://www.w3.org/2000/svg" width="200" height="200">
<path d="M0 0 C7.73894202 7.22301255 8.5852118 18.25596818 10.26171875 28.26171875 C10.45723831 29.4105806 10.65275787 30.55944244 10.85420227 31.74311829 C11.26335085 34.16208066 11.66907372 36.58162472 12.0715332 39.00170898 C12.6832035 42.66179084 13.31467669 46.3180928 13.94726562 49.97460938 C19.31289296 81.60655792 19.31289296 81.60655792 14.8125 89.6875 C7.34506392 99.27070964 -3.708511 100.3207286 -15.09985352 102.16064453 C-16.26703918 102.35454773 -17.43422485 102.54845093 -18.63677979 102.74822998 C-22.46647079 103.38277466 -26.29762515 104.00794655 -30.12890625 104.6328125 C-32.80609949 105.07334607 -35.48298852 105.51571625 -38.15989685 105.95797729 C-43.75814239 106.88183084 -49.35717915 107.80075091 -54.95678711 108.71630859 C-61.41060233 109.77155823 -67.8633823 110.83294945 -74.31558472 111.89801323 C-81.216309 113.03711164 -88.11762604 114.17258225 -95.01919818 115.30653143 C-96.99465825 115.63129215 -98.97001712 115.95666827 -100.94537544 116.28204727 C-104.63970111 116.88986118 -108.33453439 117.49448587 -112.02954102 118.09814453 C-113.11291245 118.27685089 -114.19628387 118.45555725 -115.31248474 118.63967896 C-135.69828815 121.95672391 -135.69828815 121.95672391 -144.25 117.1875 C-153.36092876 109.94017031 -154.47423907 99.55167427 -156.26171875 88.6171875 C-156.45723831 87.44471466 -156.65275787 86.27224182 -156.85420227 85.0642395 C-157.26378571 82.59228215 -157.66949379 80.11967989 -158.0715332 77.64648438 C-158.68259344 73.9050422 -159.31420774 70.16746216 -159.94726562 66.4296875 C-165.3053834 34.17746379 -165.3053834 34.17746379 -160.375 25.8125 C-155.06894051 18.69564243 -148.74211725 17.17794183 -140.3984375 15.80078125 C-139.25563324 15.60076004 -138.11282898 15.40073883 -136.93539429 15.19465637 C-133.45457944 14.59069025 -129.97168203 14.0019979 -126.4874115 13.41846466 C-123.79847926 12.96609756 -121.11064836 12.50756896 -118.42297363 12.04779053 C-105.17819756 9.78240263 -91.92670893 7.55946005 -78.67089844 5.35961914 C-72.76485876 4.37892091 -66.8609444 3.38596659 -60.95737648 2.39051342 C-56.35834976 1.61742479 -51.75780573 0.85367984 -47.15681076 0.0924015 C-44.97874665 -0.26965897 -42.80125913 -0.63520797 -40.62440872 -1.00449562 C-8.48334822 -6.44815066 -8.48334822 -6.44815066 0 0 Z M-66.21118164 28.95629883 C-66.90628342 29.06998306 -67.60138519 29.1836673 -68.31755066 29.30079651 C-70.60011677 29.67669373 -72.88004899 30.06651829 -75.16015625 30.45703125 C-76.7537458 30.72339916 -78.34745211 30.9890694 -79.94126892 31.2540741 C-83.27513325 31.8105285 -86.60779534 32.37356627 -89.93969727 32.94165039 C-94.20383887 33.66840366 -98.47011705 34.38153645 -102.73731327 35.09010792 C-106.02634786 35.63730109 -109.31439013 36.19026994 -112.60214043 36.74512291 C-114.1747258 37.0100879 -115.74755622 37.27360287 -117.32063484 37.53562355 C-119.52082773 37.9032863 -121.71963038 38.27835997 -123.91821289 38.65551758 C-125.79302086 38.97314812 -125.79302086 38.97314812 -127.70570374 39.29719543 C-130.70175945 39.93637342 -133.27189477 40.61000006 -136 42 C-136.98333671 44.49675668 -136.98333671 44.49675668 -137 47 C-136.67 47.33 -136.34 47.66 -136 48 C-126.33398091 47.84604727 -116.73838937 46.17253899 -107.21484375 44.63671875 C-106.13144305 44.46354598 -106.13144305 44.46354598 -105.02615547 44.28687477 C-101.2209808 43.67862282 -97.4168406 43.0643495 -93.61352539 42.44458008 C-89.69867992 41.80778489 -85.78090161 41.19136805 -81.862113 40.57937908 C-78.82941925 40.10213981 -75.79921211 39.61037152 -72.76950264 39.11457253 C-71.32510972 38.88074718 -69.87983123 38.65232338 -68.43369865 38.42951012 C-66.41942024 38.11773521 -64.40868037 37.78335326 -62.39819336 37.44799805 C-61.25603867 37.26448288 -60.11388397 37.08096771 -58.93711853 36.89189148 C-55.62359267 35.88569937 -54.19988261 34.6252373 -52 32 C-52.495 30.515 -52.495 30.515 -53 29 C-57.72359079 27.96280666 -61.45463941 28.16003403 -66.21118164 28.95629883 Z M-101.49609375 59.49609375 C-102.37024429 59.64909439 -103.24439484 59.80209503 -104.14503479 59.95973206 C-105.97673982 60.28183748 -107.80786833 60.60723736 -109.63842773 60.93579102 C-112.4522072 61.44013614 -115.26786436 61.93273829 -118.08398438 62.42382812 C-119.86730866 62.73889832 -121.6505163 63.05462962 -123.43359375 63.37109375 C-124.2782872 63.51904892 -125.12298065 63.66700409 -125.99327087 63.81944275 C-129.81227298 64.21029988 -129.81227298 64.21029988 -133 66 C-133.04063832 67.66617115 -133.042721 69.33388095 -133 71 C-127.14929071 72.17486493 -122.30129066 71.69456026 -116.453125 70.671875 C-115.56010681 70.52220276 -114.66708862 70.37253052 -113.74700928 70.21832275 C-111.87031291 69.90067493 -109.99452088 69.57764201 -108.11962891 69.24951172 C-105.24772314 68.74960367 -102.3724694 68.27420825 -99.49609375 67.80078125 C-97.6690199 67.48844349 -95.84218731 67.17469045 -94.015625 66.859375 C-93.15624329 66.71860535 -92.29686157 66.57783569 -91.41143799 66.43280029 C-90.61340759 66.28965393 -89.8153772 66.14650757 -88.99316406 65.99902344 C-88.29257874 65.87831482 -87.59199341 65.7576062 -86.87017822 65.63323975 C-84.62088673 64.87163278 -83.54262846 63.77349188 -82 62 C-82.66 60.68 -83.32 59.36 -84 58 C-90.02957292 57.83449248 -95.56908148 58.42576956 -101.49609375 59.49609375 Z M-70.89257812 78.77270508 C-72.10393433 78.96653275 -73.31529053 79.16036041 -74.56335449 79.36006165 C-75.88604815 79.57951257 -77.20867855 79.79934504 -78.53125 80.01953125 C-79.88734152 80.24079477 -81.24350311 80.46162927 -82.59973145 80.68205261 C-85.4417999 81.14569196 -88.28293902 81.61458473 -91.12353516 82.0871582 C-94.76369768 82.69230967 -98.4058514 83.28432647 -102.04880524 83.87241077 C-104.84978885 84.3260729 -107.64958853 84.78672285 -110.44908142 85.24948692 C-111.79154569 85.47052758 -113.13437148 85.68938407 -114.47755432 85.9060154 C-116.35534109 86.20993945 -118.23143112 86.52429131 -120.10742188 86.83911133 C-121.17536987 87.01533524 -122.24331787 87.19155914 -123.34362793 87.37312317 C-126.20636896 87.88569363 -126.20636896 87.88569363 -129 90 C-128.67 91.65 -128.34 93.3 -128 95 C-124.02842182 96.02606837 -120.98956935 95.89583057 -116.95629883 95.22729492 C-115.16468071 94.93655342 -115.16468071 94.93655342 -113.33686829 94.63993835 C-112.05652206 94.42231339 -110.77617584 94.20468842 -109.45703125 93.98046875 C-108.12384428 93.7590831 -106.79056531 93.5382509 -105.4571991 93.31794739 C-102.66976888 92.85532234 -99.88349833 92.38637094 -97.09790039 91.9128418 C-93.52525036 91.30599606 -89.95026151 90.71449022 -86.37428761 90.12758923 C-83.62383721 89.67455027 -80.8747341 89.21373638 -78.12598228 88.75051308 C-76.16679743 88.42170565 -74.2065473 88.09926626 -72.24629211 87.77690125 C-71.06133652 87.5736171 -69.87638092 87.37033295 -68.65551758 87.16088867 C-67.08596062 86.89655281 -67.08596062 86.89655281 -65.48469543 86.62687683 C-62.84491831 86.18668043 -62.84491831 86.18668043 -61 84 C-61.32041397 81.39719432 -61.32041397 81.39719432 -62 79 C-65.49890084 77.83369972 -67.27244579 78.18343162 -70.89257812 78.77270508 Z " fill="#000000" transform="translate(176,33)"/>
<path d="M0 0 C2.79846485 2.79846485 2.68355529 5.24329219 3.3125 9.125 C4.61828589 16.22463122 6.12201499 21.98716233 11.99609375 26.55078125 C22.17698027 33.18236788 32.29005312 31.03369788 43.74584961 29.07226562 C44.98119446 28.86744064 46.21653931 28.66261566 47.48931885 28.45158386 C50.84727711 27.89329969 54.20390002 27.32795584 57.56013942 26.75948906 C61.08241412 26.16480288 64.60628932 25.57975907 68.13002014 24.99377441 C74.79245721 23.88443872 81.45356062 22.76731008 88.1141544 21.6469655 C100.06018191 19.63788785 112.00857147 17.64291871 123.95725256 15.64969206 C128.14841625 14.95023135 132.33903037 14.24758662 136.52920806 13.54224396 C139.73915481 13.00235632 142.9495854 12.46535731 146.15991211 11.92773438 C147.32095963 11.73136887 148.48200714 11.53500336 149.67823792 11.33268738 C150.73650787 11.15599014 151.79477783 10.97929291 152.88511658 10.79724121 C153.80590468 10.64237999 154.72669279 10.48751877 155.67538357 10.32796478 C158 10 158 10 161 10 C161.11728126 13.66639248 161.18760891 17.3322952 161.25 21 C161.28351563 22.02996094 161.31703125 23.05992187 161.3515625 24.12109375 C161.45748161 32.43574419 160.04157869 37.82016774 154.25 43.875 C146.98874437 48.62274407 139.15611618 48.29313223 130.76000977 48.2746582 C129.55410187 48.27976913 128.34819397 48.28488007 127.10574341 48.29014587 C123.81848002 48.30161619 120.53137405 48.30412325 117.24409604 48.30158257 C114.49078997 48.30050774 111.73750679 48.30540919 108.98420566 48.310188 C102.4844886 48.32125635 95.98482934 48.32173551 89.48510742 48.31567383 C82.79923924 48.30963407 76.11358151 48.32195111 69.42774922 48.3432439 C63.66867031 48.36090487 57.90965813 48.36685424 52.15055317 48.36360615 C48.71915672 48.3618005 45.28791047 48.36435733 41.85653877 48.37832069 C38.02732355 48.39069009 34.19859254 48.38388986 30.36938477 48.37231445 C29.24546829 48.37995819 28.12155182 48.38760193 26.96357727 48.39547729 C19.21481221 48.34384011 12.04306828 47.48455548 5.625 42.8125 C-1.5771757 35.09588318 -0.3592057 25.34014037 -0.1875 15.5 C-0.1724286 13.99480503 -0.15874453 12.48959549 -0.14648438 10.984375 C-0.11366687 7.32261059 -0.06201989 3.66139979 0 0 Z " fill="#000000" transform="translate(16,126)"/>
</svg>
